<?xml version="1.0" encoding="UTF-8"?>
<!DOCTYPE svg PUBLIC "-//W3C//DTD SVG 1.1//EN" "http://www.w3.org/Graphics/SVG/1.1/DTD/svg11.dtd">
<svg xmlns="http://www.w3.org/2000/svg" version="1.1" width="500px" height="500px" style="shape-rendering:geometricPrecision; text-rendering:geometricPrecision; image-rendering:optimizeQuality; fill-rule:evenodd; clip-rule:evenodd" xmlns:xlink="http://www.w3.org/1999/xlink">
<g><path style="opacity:1" fill="#fefefe" d="M -0.5,-0.5 C 166.167,-0.5 332.833,-0.5 499.5,-0.5C 499.5,166.167 499.5,332.833 499.5,499.5C 332.833,499.5 166.167,499.5 -0.5,499.5C -0.5,332.833 -0.5,166.167 -0.5,-0.5 Z"/></g>
<g><path style="opacity:1" fill="#020202" d="M 239.5,95.5 C 263.058,93.7027 284.391,99.536 303.5,113C 309.262,118.704 314.428,124.871 319,131.5C 326.667,146.167 334.333,160.833 342,175.5C 349.834,187.578 360.834,194.578 375,196.5C 386.82,195.003 398.32,192.17 409.5,188C 414.419,187.198 419.252,187.365 424,188.5C 424.652,191.594 424.318,194.594 423,197.5C 418.053,205.049 412.386,212.049 406,218.5C 387.772,236.059 370.272,254.226 353.5,273C 350.5,272.667 347.5,272.333 344.5,272C 346.617,273.731 348.117,275.898 349,278.5C 349.667,320.167 349.667,361.833 349,403.5C 348.042,408.279 345.208,411.112 340.5,412C 279.167,412.667 217.833,412.667 156.5,412C 152.684,409.537 150.517,406.037 150,401.5C 149.333,360.5 149.333,319.5 150,278.5C 150.786,275.417 152.619,273.251 155.5,272C 152.094,272.024 148.761,272.357 145.5,273C 125.365,251.197 104.865,229.697 84,208.5C 80.4888,204.14 77.4888,199.473 75,194.5C 73.1524,188.513 75.3191,186.18 81.5,187.5C 95.3538,190.395 109.187,193.395 123,196.5C 129.645,196.285 135.811,194.452 141.5,191C 146.301,187.201 150.801,183.034 155,178.5C 163.525,163.45 171.525,148.117 179,132.5C 193.261,110.615 213.428,98.2814 239.5,95.5 Z"/></g>
<g><path style="opacity:1" fill="#f4f4f4" d="M 233.5,157.5 C 233.5,156.167 233.5,154.833 233.5,153.5C 238.032,153.818 242.366,153.485 246.5,152.5C 245.839,149.187 244.006,146.52 241,144.5C 237.976,136.208 240.81,131.541 249.5,130.5C 259.719,132.014 262.219,137.348 257,146.5C 253.793,147.255 252.293,149.255 252.5,152.5C 257.167,152.5 261.833,152.5 266.5,152.5C 266.5,154.167 266.5,155.833 266.5,157.5C 261.833,157.5 257.167,157.5 252.5,157.5C 252.451,178.179 252.951,198.846 254,219.5C 263.085,217.861 271.252,214.195 278.5,208.5C 277.5,207.167 276.5,205.833 275.5,204.5C 280.092,200.953 284.592,197.286 289,193.5C 289.029,200.967 288.029,208.301 286,215.5C 284.649,213.981 283.149,212.648 281.5,211.5C 274.021,219.906 264.687,224.573 253.5,225.5C 253.5,227.833 253.5,230.167 253.5,232.5C 250.833,232.5 248.167,232.5 245.5,232.5C 245.5,230.167 245.5,227.833 245.5,225.5C 240.673,225.059 236.007,223.893 231.5,222C 226.692,218.692 222.025,215.192 217.5,211.5C 215.851,212.648 214.351,213.981 213,215.5C 211.707,208.122 210.707,200.788 210,193.5C 214.333,196.833 218.667,200.167 223,203.5C 223.163,205.387 222.329,206.887 220.5,208C 227.421,214.792 235.754,218.292 245.5,218.5C 246.096,198.172 246.43,177.839 246.5,157.5C 242.167,157.5 237.833,157.5 233.5,157.5 Z"/></g>
<g><path style="opacity:1" fill="#111111" d="M 246.5,135.5 C 254.543,135.003 256.21,137.836 251.5,144C 245.639,143.948 243.972,141.115 246.5,135.5 Z"/></g>
<g><path style="opacity:1" fill="#848484" d="M 246.5,152.5 C 242.366,153.485 238.032,153.818 233.5,153.5C 233.5,154.833 233.5,156.167 233.5,157.5C 232.549,156.081 232.216,154.415 232.5,152.5C 237.167,152.5 241.833,152.5 246.5,152.5 Z"/></g>
<g><path style="opacity:1" fill="#f7f7f7" d="M 329.5,268.5 C 275.5,269.833 221.5,269.833 167.5,268.5C 221.489,257.858 275.489,257.858 329.5,268.5 Z"/></g>
<g><path style="opacity:1" fill="#bdbdbd" d="M 167.5,268.5 C 221.5,269.833 275.5,269.833 329.5,268.5C 331.482,268.995 333.482,269.495 335.5,270C 277.167,270.667 218.833,270.667 160.5,270C 162.866,269.56 165.199,269.06 167.5,268.5 Z"/></g>
<g><path style="opacity:1" fill="#fafafa" d="M 345.5,295.5 C 281.833,295.5 218.167,295.5 154.5,295.5C 154.5,289.833 154.5,284.167 154.5,278.5C 155.673,276.496 157.34,274.996 159.5,274C 219.5,273.333 279.5,273.333 339.5,274C 342.232,274.398 344.065,275.898 345,278.5C 345.499,284.157 345.666,289.824 345.5,295.5 Z"/></g>
<g><path style="opacity:1" fill="#161616" d="M 166.5,279.5 C 175.523,279.062 178.189,282.895 174.5,291C 166.246,294.081 162.746,291.248 164,282.5C 165.045,281.627 165.878,280.627 166.5,279.5 Z"/></g>
<g><path style="opacity:1" fill="#181818" d="M 183.5,278.5 C 190.142,278.64 192.976,281.973 192,288.5C 188.219,293.201 184.219,293.534 180,289.5C 178.663,284.916 179.829,281.249 183.5,278.5 Z"/></g>
<g><path style="opacity:1" fill="#0e0e0e" d="M 198.5,279.5 C 207.523,279.062 210.189,282.895 206.5,291C 200.489,294.183 196.823,292.516 195.5,286C 195.84,283.489 196.84,281.322 198.5,279.5 Z"/></g>
<g><path style="opacity:1" fill="#efefef" d="M 167.5,283.5 C 171.419,282.746 172.753,284.08 171.5,287.5C 168.07,288.742 166.737,287.409 167.5,283.5 Z"/></g>
<g><path style="opacity:1" fill="#e9e9e9" d="M 183.5,283.5 C 187.138,282.737 188.638,284.07 188,287.5C 185.507,288.946 183.673,288.279 182.5,285.5C 182.863,284.817 183.196,284.15 183.5,283.5 Z"/></g>
<g><path style="opacity:1" fill="#e7e7e7" d="M 200.5,282.5 C 204.35,282.701 205.35,284.534 203.5,288C 199.537,288.118 198.537,286.284 200.5,282.5 Z"/></g>
<g><path style="opacity:1" fill="#7f7f7f" d="M 154.5,278.5 C 154.5,284.167 154.5,289.833 154.5,295.5C 218.167,295.5 281.833,295.5 345.5,295.5C 281.669,296.499 217.669,296.832 153.5,296.5C 153.177,290.31 153.51,284.31 154.5,278.5 Z"/></g>
<g><path style="opacity:1" fill="#a2a2a2" d="M 345.5,300.5 C 281.833,300.5 218.167,300.5 154.5,300.5C 154.5,334.833 154.5,369.167 154.5,403.5C 153.502,369.004 153.168,334.337 153.5,299.5C 217.669,299.168 281.669,299.501 345.5,300.5 Z"/></g>
<g><path style="opacity:1" fill="#fefefe" d="M 345.5,300.5 C 345.667,334.835 345.5,369.168 345,403.5C 344.535,404.931 343.701,406.097 342.5,407C 280.916,408.659 219.249,408.992 157.5,408C 155.859,406.871 154.859,405.371 154.5,403.5C 154.5,369.167 154.5,334.833 154.5,300.5C 218.167,300.5 281.833,300.5 345.5,300.5 Z"/></g>
<g><path style="opacity:1" fill="#131313" d="M 226.5,333.5 C 228.686,333.511 229.519,334.511 229,336.5C 223.927,342.317 219.093,348.317 214.5,354.5C 219.146,360.314 223.979,365.98 229,371.5C 229.783,373.319 229.283,374.652 227.5,375.5C 220.749,369.087 214.749,362.087 209.5,354.5C 214.779,347.217 220.446,340.217 226.5,333.5 Z"/></g>
<g><path style="opacity:1" fill="#111111" d="M 257.5,333.5 C 258.5,333.5 259.5,333.5 260.5,333.5C 260.66,335.199 260.494,336.866 260,338.5C 253.993,351.184 247.493,363.517 240.5,375.5C 238.717,374.652 238.217,373.319 239,371.5C 245.452,358.929 251.619,346.263 257.5,333.5 Z"/></g>
<g><path style="opacity:1" fill="#101010" d="M 270.5,333.5 C 273.394,334.882 275.894,336.882 278,339.5C 282.441,344.098 286.274,349.098 289.5,354.5C 284.251,362.087 278.251,369.087 271.5,375.5C 269.115,374.187 268.948,372.52 271,370.5C 275.748,365.31 280.248,359.976 284.5,354.5C 280.268,348.092 275.435,342.092 270,336.5C 269.53,335.423 269.697,334.423 270.5,333.5 Z"/></g>
</svg>
