<?xml version="1.0" standalone="no"?>
<!DOCTYPE svg PUBLIC "-//W3C//DTD SVG 20010904//EN"
 "http://www.w3.org/TR/2001/REC-SVG-20010904/DTD/svg10.dtd">
<svg version="1.0" xmlns="http://www.w3.org/2000/svg"
 width="512.000000pt" height="512.000000pt" viewBox="0 0 512.000000 512.000000"
 preserveAspectRatio="xMidYMid meet">

<g transform="translate(0.000000,512.000000) scale(0.100000,-0.100000)"
fill="#000000" stroke="none">
<path d="M2470 4130 c-264 -26 -478 -145 -609 -339 -22 -32 -85 -151 -141
-265 -96 -198 -105 -212 -179 -287 -83 -84 -147 -120 -234 -133 -56 -9 -119 3
-277 50 -131 40 -236 49 -253 23 -36 -55 34 -148 368 -488 143 -146 282 -291
308 -323 46 -54 49 -56 80 -47 47 13 49 12 27 -24 -19 -31 -20 -52 -20 -670 0
-529 2 -643 14 -672 29 -69 -27 -65 1008 -65 1009 1 961 -2 999 56 18 28 19
53 19 674 0 625 -1 646 -20 678 -22 35 -20 36 27 23 31 -9 34 -7 80 47 26 32
158 170 293 307 324 330 390 410 390 471 0 17 -7 37 -15 44 -22 18 -115 5
-233 -31 -281 -87 -372 -73 -523 80 -72 74 -83 90 -175 277 -148 299 -220 397
-363 489 -154 100 -363 146 -571 125z m164 -381 c39 -46 35 -93 -9 -135 -55
-51 -48 -64 35 -64 68 0 70 -1 70 -25 0 -24 -2 -25 -72 -25 l-71 0 7 -312 c4
-172 9 -314 11 -316 14 -14 215 68 254 104 2 2 -4 13 -14 24 -10 11 -16 22
-14 24 26 25 133 105 137 102 4 -5 -15 -166 -25 -199 -5 -18 -6 -17 -28 3
l-23 22 -63 -51 c-59 -48 -147 -91 -187 -91 -27 0 -39 -13 -47 -48 -6 -30 -10
-33 -38 -30 -28 3 -33 7 -37 37 -5 32 -9 35 -65 51 -75 20 -95 31 -168 87
l-58 45 -25 -23 c-13 -12 -24 -19 -24 -16 0 4 -7 53 -15 109 -9 55 -13 103
-11 106 6 5 136 -96 136 -106 0 -3 -7 -13 -15 -22 -15 -16 -11 -20 38 -53 53
-35 192 -83 201 -68 3 4 8 145 12 314 l7 307 -71 0 c-70 0 -72 1 -72 25 0 24
2 25 70 25 82 0 92 15 38 61 -29 23 -33 33 -33 74 0 62 35 95 100 95 36 0 47
-5 69 -31z m351 -1323 c161 -19 378 -54 408 -66 13 -5 -321 -9 -843 -9 -517 1
-855 4 -840 9 40 15 315 58 440 69 63 6 133 13 155 15 87 9 558 -4 680 -18z
m530 -141 c23 -22 25 -32 25 -115 l0 -91 -977 3 -978 3 -3 88 c-3 81 -1 89 22
112 l25 25 931 0 931 0 24 -25z m25 -775 l0 -531 -25 -24 -24 -25 -931 0 -931
0 -24 25 -25 24 0 531 0 530 980 0 980 0 0 -530z"/>
<path d="M2520 3709 c-16 -28 11 -69 45 -69 33 0 52 38 36 69 -16 28 -66 29
-81 0z"/>
<path d="M1862 2240 c-42 -40 -14 -120 43 -120 39 0 65 28 65 70 0 64 -62 92
-108 50z m63 -51 c0 -17 -6 -24 -20 -24 -23 0 -33 34 -13 46 20 13 33 5 33
-22z"/>
<path d="M1696 2234 c-22 -21 -20 -77 2 -97 25 -23 68 -21 92 3 41 41 13 110
-45 110 -18 0 -41 -7 -49 -16z m68 -31 c8 -19 -17 -48 -33 -39 -12 8 -15 39
-4 49 12 12 31 7 37 -10z"/>
<path d="M2026 2234 c-22 -21 -20 -77 2 -97 25 -23 68 -21 92 3 41 41 13 110
-45 110 -18 0 -41 -7 -49 -16z m69 -44 c0 -16 -6 -26 -18 -28 -19 -4 -32 20
-23 44 9 25 41 13 41 -16z"/>
<path d="M2237 1598 c-48 -56 -87 -106 -87 -112 0 -16 168 -210 184 -214 38
-8 18 32 -55 114 -43 49 -79 93 -79 98 0 4 36 50 81 102 74 86 88 114 56 114
-7 0 -51 -46 -100 -102z"/>
<path d="M2546 1501 c-93 -185 -108 -231 -76 -231 13 0 212 409 204 421 -15
25 -38 -8 -128 -190z"/>
<path d="M2770 1684 c0 -9 34 -55 75 -103 41 -49 75 -92 75 -97 0 -5 -34 -47
-75 -94 -71 -81 -91 -120 -61 -120 17 0 186 196 186 217 0 19 -169 213 -187
213 -7 0 -13 -7 -13 -16z"/>
</g>
</svg>
